<?xml version="1.0" encoding="iso-8859-1"?>
<!-- Generator: Adobe Illustrator 19.0.0, SVG Export Plug-In . SVG Version: 6.00 Build 0)  -->
<svg version="1.1" id="Layer_1" xmlns="http://www.w3.org/2000/svg" xmlns:xlink="http://www.w3.org/1999/xlink" x="0px" y="0px"
	 viewBox="0 0 396 396" style="enable-background:new 0 0 396 396;" xml:space="preserve">
<g transform="translate(19 24)">
	<g>
		<rect x="13" y="126" style="fill:#9CE0FF;" width="336" height="184"/>
		<path style="fill:#61A1DD;" d="M357,318H5V118h352V318z M21,302h320V134H21V302z"/>
	</g>
	<g>
		<path style="fill:#61A1DD;" d="M117,298c-4.4,0-8-3.6-8-8V166c0-4.4,3.6-8,8-8s8,3.6,8,8v124C125,294.4,121.4,298,117,298z"/>
		<path style="fill:#61A1DD;" d="M245,302c-4.4,0-8-3.6-8-8V166c0-4.4,3.6-8,8-8s8,3.6,8,8v128C253,298.4,249.4,302,245,302z"/>
		<path style="fill:#61A1DD;" d="M289,238H93c-4.4,0-8-3.6-8-8s3.6-8,8-8h196c4.4,0,8,3.6,8,8S293.4,238,289,238z"/>
		<path style="fill:#61A1DD;" d="M65.4,238H49c-4.4,0-8-3.6-8-8s3.6-8,8-8h16.4c4.4,0,8,3.6,8,8S69.8,238,65.4,238z"/>
	</g>
	<g>
		<path style="fill:#FFC33B;" d="M352.2,342H5.8c-11.6,0-19.2-11.6-14.8-22l6.8-16c2.4-6,8.4-10,14.8-10h333.2c6.4,0,12.4,4,14.8,10
			l6.8,16C371.4,330.4,363.8,342,352.2,342L352.2,342z"/>
		<path style="fill:#C39215;" d="M352.2,350H5.8c-8,0-15.6-4-20-10.8s-5.2-15.2-2-22.4l6.8-16C-5.8,292,3,286,12.6,286h333.2
			c9.6,0,18.8,6,22.4,15.2l6.8,16c2.8,7.6,2,16-2.4,22.8C367.8,346,360.2,350,352.2,350z M12.6,302c-3.2,0-6.4,2-7.2,4.8l-6.8,16
			c-1.2,2.4-0.8,5.2,0.8,7.2c1.6,2.4,4,3.6,6.8,3.6h346.4c2.8,0,5.2-1.2,6.8-3.6c1.6-2.4,2-5.2,0.8-7.6l-6.8-15.6
			c-1.2-2.8-4.4-4.8-7.6-4.8H12.6z"/>
	</g>
	<g>
		<path style="fill:#FF793B;" d="M293,134c0,17.6-14.4,32-32,32h-12c-17.6,0-32-14.4-32-32c0,17.6-14.4,32-32,32h-12
			c-17.6,0-32-14.4-32-32c0,17.6-14.4,32-32,32H97c-17.6,0-32-14.4-32-32c0,17.6-14.4,32-32,32H21c-17.6,0-32-14.4-32-32L3.4,20
			c1.2-8,8-14,16-14H339c8,0,14.8,6,16,14l14,114c0,17.6-14.4,32-32,32h-12C307.4,166,293,151.6,293,134L293,134z"/>
		<path style="fill:#C6490F;" d="M337,174h-12c-13.2,0-24.8-6.4-32-16c-7.2,9.6-18.8,16-32,16h-12c-13.2,0-24.8-6.4-32-16
			c-7.2,9.6-18.8,16-32,16h-12c-13.2,0-24.8-6.4-32-16c-7.2,9.6-18.8,16-32,16H97c-13.2,0-24.8-6.4-32-16c-7.2,9.6-18.8,16-32,16H21
			c-22,0-40-18-40-40c0-0.4,0-0.8,0-1.2l14.4-114c2-12,12-20.8,24-20.8H339c12,0,22,8.8,24,20.8l14,114.4c0,0.4,0,0.8,0,0.8
			C377,156,359,174,337,174z M301,134c0,13.2,10.8,24,24,24h12c13.2,0,23.6-10.4,24-23.6L347,20.8c-0.4-4-4-6.8-8-6.8H19.4
			c-4,0-7.6,3.2-8,7.2L-3,134.4C-2.6,147.6,7.8,158,21,158h12c13.2,0,24-10.8,24-24c0-4.4,3.6-8,8-8s8,3.6,8,8c0,13.2,10.8,24,24,24
			h12c13.2,0,24-10.8,24-24c0-4.4,3.6-8,8-8s8,3.6,8,8c0,13.2,10.8,24,24,24h12c13.2,0,24-10.8,24-24c0-4.4,3.6-8,8-8s8,3.6,8,8
			c0,13.2,10.8,24,24,24h12c13.2,0,24-10.8,24-24c0-4.4,3.6-8,8-8S301,129.6,301,134z"/>
	</g>
	<path style="fill:#FF9C6D;" d="M11,22c0.4-4.4,4.4-8,9.2-8h318c4.4,0,8.4,3.6,8.8,8l0.8,8c1.2,8.8-5.2,16-14,16h-310
		c-8.8,0-15.2-7.2-14-16L11,22z"/>
</g>
<g>
</g>
<g>
</g>
<g>
</g>
<g>
</g>
<g>
</g>
<g>
</g>
<g>
</g>
<g>
</g>
<g>
</g>
<g>
</g>
<g>
</g>
<g>
</g>
<g>
</g>
<g>
</g>
<g>
</g>
</svg>
