<svg width="111" height="38" viewBox="0 0 111 38" fill="none" xmlns="http://www.w3.org/2000/svg">
<rect width="111" height="38" rx="6" fill="#1C1C1C"/>
<mask id="mask0" mask-type="alpha" maskUnits="userSpaceOnUse" x="0" y="0" width="111" height="38">
<rect width="111" height="38" rx="6" fill="white"/>
</mask>
<g mask="url(#mask0)">
<path fill-rule="evenodd" clip-rule="evenodd" d="M21.2567 11.1891C21.9654 10.2997 22.4503 9.08985 22.3157 7.86206C21.2899 7.90762 20.0071 8.574 19.2684 9.44379C18.6148 10.2102 18.031 11.4665 18.1818 12.6479C19.3341 12.7342 20.5171 12.0645 21.2567 11.1891ZM23.8515 18.9007C23.8281 16.2979 25.9591 15.0217 26.0877 14.9447L26.0903 14.9431C24.865 13.1507 22.966 12.9058 22.2986 12.8863C21.3228 12.7832 20.3649 13.1647 19.5822 13.4764C19.0855 13.6742 18.6594 13.8439 18.344 13.8439C17.9849 13.8439 17.5464 13.6671 17.0551 13.469C16.4126 13.21 15.6798 12.9145 14.9156 12.9302C13.1804 12.957 11.557 13.9651 10.6666 15.5306C8.82921 18.7225 10.1996 23.4132 11.96 25.9933C12.8406 27.2577 13.8696 28.6677 15.2165 28.6181C15.8277 28.5932 16.2613 28.41 16.7093 28.2207C17.227 28.002 17.764 27.7751 18.6165 27.7751C19.4206 27.7751 19.9347 27.9947 20.428 28.2054C20.9012 28.4075 21.3553 28.6015 22.0278 28.5855C23.442 28.5644 24.3323 27.3171 25.1821 26.0413C26.1997 24.5946 26.6084 23.1667 26.6246 23.0934C26.5922 23.0828 23.879 22.0438 23.8515 18.9007ZM35.8425 8.56289H33.939V14.2457H35.8425C37.5263 14.2457 38.5153 13.1942 38.5153 11.4023C38.5153 9.61438 37.5223 8.56289 35.8425 8.56289ZM34.6455 9.20092V13.6077H35.7954C37.0788 13.6077 37.7932 12.8201 37.7932 11.4102C37.7932 9.98856 37.0828 9.20092 35.7954 9.20092H34.6455ZM39.3523 12.1977C39.3523 13.5013 40.1137 14.3165 41.2441 14.3165C42.3705 14.3165 43.1319 13.5013 43.1319 12.1977C43.1319 10.8903 42.3705 10.079 41.2441 10.079C40.1137 10.079 39.3523 10.8903 39.3523 12.1977ZM41.2441 13.7138C41.9662 13.7138 42.4372 13.1625 42.4372 12.1976C42.4372 11.2328 41.9662 10.6815 41.2441 10.6815C40.5219 10.6815 40.047 11.2328 40.047 12.1976C40.047 13.1625 40.5219 13.7138 41.2441 13.7138ZM48.1409 14.2455L49.2791 10.1498H48.604L47.7877 13.4815H47.772L46.8457 10.1498H46.1864L45.2641 13.4815H45.2484L44.432 10.1498H43.753L44.8951 14.2455H45.5898L46.5082 11.0753H46.5239L47.4462 14.2455H48.1409ZM50.1044 10.1499H50.748V10.8036H50.7637C50.9914 10.3625 51.427 10.079 52.0589 10.079C52.9537 10.079 53.4718 10.6579 53.4718 11.5873V14.2456H52.7889V11.7094C52.7889 11.0478 52.4788 10.6855 51.8509 10.6855C51.2072 10.6855 50.7873 11.1423 50.7873 11.8354V14.2456H50.1044V10.1499ZM54.6424 8.56289V14.2457H55.3253V8.56289H54.6424ZM58.2072 14.3165C57.0768 14.3165 56.3154 13.5013 56.3154 12.1977C56.3154 10.8903 57.0768 10.079 58.2072 10.079C59.3336 10.079 60.095 10.8903 60.095 12.1977C60.095 13.5013 59.3336 14.3165 58.2072 14.3165ZM59.4003 12.1976C59.4003 13.1625 58.9293 13.7138 58.2072 13.7138C57.485 13.7138 57.0101 13.1625 57.0101 12.1976C57.0101 11.2328 57.485 10.6815 58.2072 10.6815C58.9293 10.6815 59.4003 11.2328 59.4003 12.1976ZM62.2429 14.3165C61.4304 14.3165 60.8849 13.8242 60.8849 13.0878C60.8849 12.3868 61.4226 11.9457 62.3645 11.8906L63.5341 11.8236V11.481C63.5341 10.9808 63.2044 10.6815 62.6393 10.6815C62.1133 10.6815 61.7837 10.9296 61.6973 11.3313H61.038C61.0851 10.6225 61.6895 10.079 62.655 10.079C63.6126 10.079 64.217 10.5988 64.217 11.414V14.2456H63.5694V13.5407H63.5537C63.3104 14.0093 62.7923 14.3165 62.2429 14.3165ZM63.5341 12.6899C63.5341 13.2806 63.0396 13.7335 62.3959 13.7335C61.9053 13.7335 61.5796 13.4775 61.5796 13.0877C61.5796 12.7017 61.8936 12.4575 62.443 12.4221L63.5341 12.3552V12.6899ZM66.8987 14.3166C65.8586 14.3166 65.1522 13.4817 65.1522 12.1978C65.1522 10.914 65.8547 10.0791 66.883 10.0791C67.4678 10.0791 67.9387 10.3666 68.1821 10.8155H68.1978V8.56289H68.8807V14.2457H68.2292V13.5526H68.2174C67.9544 14.0251 67.4874 14.3166 66.8987 14.3166ZM65.8508 12.1976C65.8508 11.2722 66.306 10.6815 67.0282 10.6815C67.7307 10.6815 68.2017 11.284 68.2017 12.1976C68.2017 13.1152 67.7307 13.7138 67.0282 13.7138C66.306 13.7138 65.8508 13.1271 65.8508 12.1976ZM73.6788 14.3165C72.5485 14.3165 71.7871 13.5013 71.7871 12.1977C71.7871 10.8903 72.5485 10.079 73.6788 10.079C74.8052 10.079 75.5667 10.8903 75.5667 12.1977C75.5667 13.5013 74.8052 14.3165 73.6788 14.3165ZM74.872 12.1976C74.872 13.1625 74.401 13.7138 73.6788 13.7138C72.9567 13.7138 72.4818 13.1625 72.4818 12.1976C72.4818 11.2328 72.9567 10.6815 73.6788 10.6815C74.401 10.6815 74.872 11.2328 74.872 12.1976ZM76.5214 10.1499H77.1651V10.8036H77.1808C77.4084 10.3625 77.844 10.079 78.4759 10.079C79.3708 10.079 79.8889 10.6579 79.8889 11.5873V14.2456H79.2059V11.7094C79.2059 11.0478 78.8959 10.6855 78.2679 10.6855C77.6243 10.6855 77.2043 11.1423 77.2043 11.8354V14.2456H76.5214V10.1499ZM83.8432 9.16135H83.1603V10.1498H82.5519V10.713H83.1603V13.1822C83.1603 13.9699 83.4507 14.277 84.2003 14.277C84.3612 14.277 84.5496 14.2652 84.6321 14.2455V13.6706C84.585 13.6784 84.428 13.6903 84.3495 13.6903C84.0002 13.6903 83.8432 13.5209 83.8432 13.1468V10.713H84.636V10.1498H83.8432V9.16135ZM85.6653 14.2457V8.56289H86.3482V10.8037H86.3639C86.5916 10.3469 87.039 10.0791 87.6591 10.0791C88.554 10.0791 89.0956 10.6856 89.0956 11.5992V14.2457H88.4127V11.7252C88.4127 11.0754 88.0869 10.6856 87.4472 10.6856C86.7682 10.6856 86.3482 11.1503 86.3482 11.8591V14.2457H85.6653ZM93.6101 13.072H92.939C92.8251 13.458 92.4444 13.7218 91.9264 13.7218C91.1924 13.7218 90.7332 13.2059 90.7332 12.4222V12.3828H93.6611V12.1229C93.6611 10.8824 92.9821 10.079 91.8793 10.079C90.7529 10.079 90.0307 10.9415 90.0307 12.2135C90.0307 13.5013 90.7411 14.3165 91.9107 14.3165C92.8016 14.3165 93.4924 13.7888 93.6101 13.072ZM91.8675 10.6738C91.2278 10.6738 90.7803 11.1661 90.7372 11.8474H92.9547C92.9389 11.1621 92.5112 10.6738 91.8675 10.6738ZM39.5634 25.2447L40.5524 28.1768H42.3282L38.4245 17.3279H36.6112L32.7075 28.1768H34.4533L35.4424 25.2447H39.5634ZM37.4804 19.132L35.8694 23.8911H39.1363L37.5253 19.132H37.4804ZM51.1154 24.2221C51.1154 21.7185 49.7966 20.1397 47.7961 20.1397C46.6572 20.1397 45.7506 20.7186 45.286 21.6283H45.2561V20.2675H43.6901V30.7932H45.3085V26.8761H45.346C45.7955 27.7557 46.6947 28.3121 47.8261 28.3121C49.8041 28.3121 51.1154 26.7257 51.1154 24.2221ZM47.369 26.9361C48.6503 26.9361 49.452 25.8836 49.452 24.222C49.452 22.568 48.6503 21.5079 47.369 21.5079C46.1327 21.5079 45.301 22.5905 45.301 24.222C45.301 25.8685 46.1252 26.9361 47.369 26.9361ZM60.1498 24.2221C60.1498 21.7185 58.8311 20.1397 56.8305 20.1397C55.6916 20.1397 54.785 20.7186 54.3205 21.6283H54.2905V20.2675H52.7245V30.7932H54.343V26.8761H54.3804C54.83 27.7557 55.7291 28.3121 56.8605 28.3121C58.8386 28.3121 60.1498 26.7257 60.1498 24.2221ZM56.4035 26.9361C57.6847 26.9361 58.4864 25.8836 58.4864 24.222C58.4864 22.568 57.6847 21.5079 56.4035 21.5079C55.1671 21.5079 54.3355 22.5905 54.3355 24.222C54.3355 25.8685 55.1597 26.9361 56.4035 26.9361ZM66.605 25.1545H64.9491C65.054 27.1168 66.6724 28.3573 69.0701 28.3573C71.6326 28.3573 73.2435 27.0867 73.2435 25.0567C73.2435 23.4704 72.3219 22.5757 70.1041 22.0494L68.9127 21.7562C67.5191 21.4103 66.9496 20.9592 66.9496 20.1924C66.9496 19.23 67.8413 18.5684 69.145 18.5684C70.4488 18.5684 71.3404 19.2225 71.4378 20.3051H73.0712C73.0188 18.4331 71.4528 17.1474 69.1675 17.1474C66.8597 17.1474 65.2338 18.4331 65.2338 20.3051C65.2338 21.8163 66.1554 22.7486 68.141 23.2298L69.5421 23.5681C70.9433 23.9139 71.5352 24.4177 71.5352 25.2597C71.5352 26.2296 70.5537 26.9363 69.19 26.9363C67.7664 26.9363 66.7249 26.2296 66.605 25.1545ZM75.3922 18.3954H77.0181V20.2674H78.5166V21.5531H77.0181V25.9137C77.0181 26.5979 77.3178 26.9061 77.9772 26.9061C78.142 26.9061 78.4043 26.8911 78.5092 26.8685V28.1542C78.3293 28.1993 77.9697 28.2293 77.61 28.2293C76.0141 28.2293 75.3922 27.6204 75.3922 26.0941V21.5531H74.2458V20.2674H75.3922V18.3954ZM79.6687 24.222C79.6687 26.7707 81.1523 28.327 83.4076 28.327C85.6629 28.327 87.1465 26.7707 87.1465 24.222C87.1465 21.6808 85.6554 20.1245 83.4076 20.1245C81.1598 20.1245 79.6687 21.6808 79.6687 24.222ZM83.4076 26.9889C84.6814 26.9889 85.4981 25.9815 85.4981 24.2222C85.4981 22.4704 84.6739 21.4629 83.4076 21.4629C82.1413 21.4629 81.3171 22.4704 81.3171 24.2222C81.3171 25.9815 82.1413 26.9889 83.4076 26.9889ZM90.3066 20.2675H88.7631V28.1768H90.3816V23.4402C90.3816 22.32 91.0259 21.6208 92.0674 21.6208C92.3821 21.6208 92.6668 21.6584 92.7942 21.711V20.1998C92.6743 20.1773 92.472 20.1397 92.2398 20.1397C91.3107 20.1397 90.6063 20.6885 90.3441 21.6133H90.3066V20.2675ZM99.386 25.8534H100.922C100.697 27.297 99.3336 28.327 97.5278 28.327C95.2126 28.327 93.8114 26.7556 93.8114 24.2596C93.8114 21.7785 95.2351 20.1245 97.4604 20.1245C99.6483 20.1245 101.012 21.6732 101.012 24.0716V24.628H95.4449V24.7257C95.4449 26.1015 96.2691 27.0113 97.5653 27.0113C98.4869 27.0113 99.1687 26.5451 99.386 25.8534ZM95.4524 23.4929C95.5348 22.2975 96.329 21.4329 97.4604 21.4329C98.5918 21.4329 99.3561 22.2824 99.3935 23.4929H95.4524Z" fill="white"/>
</g>
</svg>
