<svg width="111" height="38" viewBox="0 0 111 38" fill="none" xmlns="http://www.w3.org/2000/svg">
<rect width="111" height="38" rx="6" fill="#1C1C1C"/>
<mask id="mask0" mask-type="alpha" maskUnits="userSpaceOnUse" x="0" y="0" width="111" height="38">
<rect width="111" height="38" rx="6" fill="white"/>
</mask>
<g mask="url(#mask0)">
<path fill-rule="evenodd" clip-rule="evenodd" d="M34.1211 10.1249H31.8486V10.8016H33.4604C33.3807 11.7505 32.594 12.1552 31.8514 12.1552C30.9013 12.1552 30.0721 11.4051 30.0721 10.3536C30.0721 9.32944 30.8624 8.54069 31.8533 8.54069C32.6181 8.54069 33.0686 9.02967 33.0686 9.02967L33.5407 8.53904C33.5407 8.53904 32.9346 7.86206 31.8293 7.86206C30.4218 7.86206 29.333 9.05405 29.333 10.3415C29.333 11.6032 30.3572 12.8333 31.8651 12.8333C33.1915 12.8333 34.1624 11.9217 34.1624 10.5736C34.1624 10.2892 34.1211 10.1248 34.1211 10.1248V10.1249ZM34.5493 21.0309H39.5429C39.5464 21.0451 39.6332 21.4044 39.6332 22.0166C39.6332 24.979 37.4999 26.9823 34.5856 26.9823C31.2719 26.9823 29.0213 24.2792 29.0213 21.5069C29.0213 18.6778 31.414 16.0584 34.5067 16.0586C36.9356 16.0586 38.2674 17.5461 38.2674 17.5461L37.2297 18.6243C37.2297 18.6243 36.2398 17.5495 34.5597 17.5495C32.3823 17.5495 30.6456 19.2828 30.6456 21.5334C30.6456 23.8436 32.4674 25.492 34.5552 25.492C36.187 25.492 37.9158 24.6028 38.0909 22.5178H34.5493V21.0309ZM40.2703 23.4364C40.2703 21.5616 41.7387 19.9542 43.7879 19.9542C45.4722 19.9542 47.2987 21.1518 47.2987 23.4772C47.2987 25.5061 45.7285 26.9761 43.8118 26.9761C41.6945 26.9761 40.2703 25.3388 40.2703 23.4364ZM51.521 19.9542C49.4719 19.9542 48.0034 21.5616 48.0034 23.4364C48.0034 25.3388 49.4277 26.9761 51.5451 26.9761C53.4617 26.9761 55.0319 25.5061 55.0319 23.4772C55.0319 21.1518 53.2055 19.9542 51.521 19.9542ZM45.7707 23.4677C45.7707 22.1505 44.8159 21.333 43.8081 21.333V21.3331C42.6759 21.3331 41.8058 22.2413 41.8058 23.4575C41.8058 24.7003 42.6868 25.5977 43.8035 25.5977C44.8198 25.5977 45.7707 24.7569 45.7707 23.4677ZM51.5414 21.333C52.549 21.333 53.5039 22.1505 53.5039 23.4677C53.5039 24.7569 52.553 25.5977 51.5366 25.5977C50.4201 25.5977 49.5391 24.7003 49.5391 23.4575C49.5391 22.2413 50.4091 21.3331 51.5414 21.3331V21.333ZM55.7364 23.4659C55.7364 21.6107 57.2149 19.9579 59.0956 19.9579V19.958C59.9144 19.958 60.5312 20.2759 60.9823 20.7636V20.169H62.4493V26.4778C62.4493 28.9566 61.0241 30.1382 59.154 30.1382C57.4444 30.1382 56.4841 29.0834 56.0069 28.0707L57.3517 27.5066C57.538 27.9591 58.0741 28.7569 59.1429 28.7569C60.2492 28.7569 60.9822 28.0311 60.9822 26.8198V26.1275C60.5907 26.5834 60.0605 26.9807 59.0631 26.9807C57.4504 26.9807 55.7364 25.5793 55.7364 23.4659ZM59.2317 21.3341C60.1539 21.3341 61.1008 22.1242 61.1008 23.4734C61.1008 24.8448 60.1559 25.6006 59.2114 25.6006C58.2088 25.6006 57.2758 24.7837 57.2758 23.4864C57.2758 22.1386 58.2448 21.3341 59.2317 21.3341ZM66.0168 23.4557C66.0168 21.3657 67.5063 19.9493 69.2804 19.9493L69.2806 19.9495C70.6798 19.9495 71.737 20.8858 72.1902 22.0068L72.4339 22.5793L67.7421 24.5327C68.0224 25.0562 68.4747 25.5967 69.4582 25.5968C70.3339 25.5968 70.8587 25.1191 71.1726 24.6302L72.3821 25.4379C71.8398 26.166 70.9313 26.9786 69.4509 26.9786C67.6771 26.9786 66.0168 25.6671 66.0168 23.4557ZM69.3417 21.2996C69.981 21.2996 70.441 21.6405 70.6364 22.0495L67.5032 23.3635C67.3681 22.3462 68.3287 21.2996 69.3416 21.2996H69.3417ZM65.1669 26.7703H63.6258V16.4218H65.1669V26.7703ZM84.288 26.7703H85.8291V16.4218H84.288V26.7703ZM77.6567 26.7703H76.1156V23.015V16.4218V16.4216H79.8434C81.6505 16.4216 83.129 17.9051 83.129 19.7184C83.129 21.5315 81.6505 23.015 79.8434 23.015H77.6567V26.7703ZM77.6567 21.4686V17.968H79.8434C80.7999 17.968 81.588 18.7586 81.588 19.7183C81.588 20.678 80.7999 21.4686 79.8434 21.4686H77.6567ZM97.2072 30.1382L101.669 19.9497H99.9862L97.967 24.5602L95.9477 19.9497H94.2646L97.1254 26.482L95.5241 30.1382H97.2072ZM92.1363 26.7701H93.6774V23.0481C93.9185 19.2095 89.0684 18.3066 87.2332 21.0739L88.4733 21.9089C89.3707 20.3347 91.9313 20.6969 92.0996 22.384C91.33 22.1794 90.4987 22.0311 89.7391 22.1082C88.5535 22.2286 87.5384 22.9842 87.3771 24.2216C87.2899 24.8903 87.4387 25.7146 87.9039 26.2169C88.6289 26.9996 89.8193 27.105 90.7972 26.8376C91.3477 26.687 91.7812 26.3588 92.1363 25.9348V26.7701ZM90.4308 25.4889C91.2743 25.2584 91.9392 24.6394 92.1363 23.7788C91.7051 23.6387 91.3084 23.5256 90.8537 23.4705C88.2055 23.071 88.6488 25.9763 90.4308 25.4889ZM44.1109 12.7369H43.4097V8.02744H44.1109V12.7369ZM39.482 12.7369H40.1834V8.73112H41.3346V8.02744H38.3308V8.73112H39.482V12.7369ZM37.5914 12.7369H34.9017V8.02744H37.5914V8.73112H35.6031V10.0304H37.352V10.734H35.6031V12.0332H37.5914V12.7369ZM46.5344 8.73112H47.6856V8.02744H44.6819V8.73112H45.8331V12.7369H46.5344V8.73112ZM49.4902 10.3415C49.4902 9.05394 50.579 7.86206 51.9866 7.86206C53.3941 7.86206 54.4829 9.05394 54.4829 10.3415C54.4829 11.5931 53.4749 12.8135 51.9866 12.8328C50.4982 12.8135 49.4902 11.5931 49.4902 10.3415ZM51.9866 12.1549C51.0457 12.1433 50.2294 11.3969 50.2294 10.3536C50.2294 9.33783 51.007 8.55361 51.9866 8.54092C52.9662 8.55361 53.7437 9.33783 53.7437 10.3536C53.7437 11.3969 52.9274 12.1433 51.9866 12.1549ZM55.8848 12.7369H55.1834V8.02744H55.8848L58.1361 11.4561V8.02744H58.8375V12.7369H58.1373L55.8848 9.30648V12.7369ZM10.1831 13.7364L18.1072 21.6756L10.2211 29.6845C9.99102 29.5378 9.86765 29.22 9.86556 28.8096L9.79409 14.595C9.79189 14.1456 9.95484 13.8714 10.1831 13.7364ZM11.0845 13.7471L20.7203 19.022L18.435 21.3427L10.7483 13.641C10.8647 13.6564 10.9816 13.6907 11.0845 13.7471ZM21.1487 24.0615L18.7651 21.6732L21.1463 19.2551L24.4256 21.0501C25.2334 21.4921 24.8202 22.045 24.4256 22.2617L21.1487 24.0615ZM11.0845 29.5884C11.0117 29.6292 10.9416 29.6612 10.8744 29.6865L18.4373 22.0061L20.7222 24.2954L11.0845 29.5884Z" fill="white"/>
</g>
</svg>
