<svg width="34" height="22" viewBox="0 0 34 22" fill="none" xmlns="http://www.w3.org/2000/svg">
<path d="M0.5 6C0.5 2.96243 2.96243 0.5 6 0.5H28C31.0376 0.5 33.5 2.96243 33.5 6V16C33.5 19.0376 31.0376 21.5 28 21.5H6C2.96243 21.5 0.5 19.0376 0.5 16V6Z" fill="white" stroke="#E4E4E4"/>
<path fill-rule="evenodd" clip-rule="evenodd" d="M15.0897 10.8526C15.0897 9.01564 15.9384 7.38017 17.2598 6.32178C16.2854 5.54133 15.0545 5.0741 13.7149 5.0741C10.5587 5.0741 8 7.66122 8 10.8526C8 14.0439 10.5587 16.631 13.7149 16.631C15.0545 16.631 16.2854 16.1638 17.2598 15.3833C15.9384 14.3249 15.0897 12.6895 15.0897 10.8526Z" fill="#EB001B"/>
<path fill-rule="evenodd" clip-rule="evenodd" d="M15.0897 10.8525C15.0897 12.6895 15.9384 14.3249 17.2598 15.3833C18.5812 14.3249 19.4299 12.6895 19.4299 10.8525C19.4299 9.01563 18.5812 7.38017 17.2598 6.32178C15.9384 7.38017 15.0897 9.01563 15.0897 10.8525Z" fill="#FF5E00"/>
<path fill-rule="evenodd" clip-rule="evenodd" d="M20.8046 5.0741C19.465 5.0741 18.2341 5.54133 17.2598 6.32178C18.5811 7.38025 19.4298 9.01564 19.4298 10.8526C19.4298 12.6895 18.5811 14.3249 17.2598 15.3833C18.2341 16.1638 19.465 16.631 20.8046 16.631C23.9608 16.631 26.5195 14.0439 26.5195 10.8526C26.5195 7.66122 23.9608 5.0741 20.8046 5.0741Z" fill="#F79E1C"/>
</svg>
