<svg width="34" height="22" viewBox="0 0 34 22" fill="none" xmlns="http://www.w3.org/2000/svg">
<path d="M0.5 6C0.5 2.96243 2.96243 0.5 6 0.5H28C31.0376 0.5 33.5 2.96243 33.5 6V16C33.5 19.0376 31.0376 21.5 28 21.5H6C2.96243 21.5 0.5 19.0376 0.5 16V6Z" fill="white" stroke="#E4E4E4"/>
<path d="M20.5112 5.9081C19.9651 5.27506 18.9779 5.00366 17.7151 5.00366H14.0498C13.7917 5.00367 13.5719 5.19455 13.5314 5.45383L12.0053 15.2976C11.975 15.4917 12.1228 15.6675 12.3162 15.6675H14.579L15.1473 12.0017L15.1296 12.1165C15.1701 11.8573 15.388 11.6662 15.6461 11.6662H16.7214C18.8337 11.6662 20.4877 10.7936 20.9709 8.26941C20.9852 8.19476 20.9977 8.12209 21.0084 8.05111C20.9474 8.01826 20.9474 8.01826 21.0084 8.05111C21.1523 7.11813 21.0074 6.48306 20.5112 5.9081Z" fill="#27346A"/>
<path d="M16.0131 7.71502C16.075 7.68506 16.1426 7.66954 16.2112 7.66958H19.0846C19.4249 7.66958 19.7423 7.6921 20.0323 7.73957C20.1134 7.75273 20.1942 7.76844 20.2744 7.78668C20.388 7.81219 20.5004 7.84341 20.611 7.88023C20.7536 7.92866 20.8864 7.98506 21.0084 8.05111C21.1523 7.11777 21.0074 6.48306 20.5112 5.9081C19.9648 5.27506 18.9779 5.00366 17.7151 5.00366H14.0495C13.7914 5.00366 13.5719 5.19475 13.5314 5.45383L12.0053 15.2973C11.975 15.4917 12.1228 15.6672 12.3159 15.6672H14.579L15.758 8.06338C15.7815 7.91166 15.8769 7.78141 16.0131 7.71502Z" fill="#27346A"/>
<path d="M20.9709 8.26945C20.4878 10.7933 18.8338 11.6663 16.7214 11.6663H15.6458C15.3878 11.6663 15.1698 11.8574 15.1297 12.1165L14.4227 16.6746C14.3963 16.8444 14.5255 16.9984 14.6945 16.9984H16.602C16.8277 16.9983 17.0199 16.8313 17.0552 16.6046L17.0737 16.5057L17.4332 14.1885L17.4564 14.0604C17.4917 13.8337 17.6838 13.6667 17.9095 13.6666H18.195C20.0428 13.6666 21.4896 12.9032 21.9125 10.6951C22.0889 9.77241 21.9976 9.00202 21.5308 8.4609C21.3892 8.297 21.2133 8.16164 21.0085 8.05115C20.9974 8.12249 20.9853 8.1948 20.9709 8.26945Z" fill="#2790C3"/>
<path d="M20.5028 7.84609C20.4275 7.82372 20.3514 7.80391 20.2748 7.7867C20.1945 7.76876 20.1138 7.75315 20.0327 7.73991C19.7424 7.69212 19.4252 7.66956 19.0846 7.66956H16.2115C16.1429 7.6694 16.0752 7.68506 16.0135 7.71535C15.8771 7.78155 15.7817 7.9119 15.7583 8.06372L15.1476 12.0017L15.13 12.1165C15.1702 11.8574 15.3881 11.6662 15.6462 11.6662H16.7217C18.8341 11.6662 20.4881 10.7936 20.9713 8.26943C20.9856 8.19478 20.9977 8.12243 21.0088 8.05113C20.8864 7.98544 20.754 7.92868 20.6114 7.88057C20.5754 7.86844 20.5392 7.85694 20.5028 7.84609" fill="#1F264F"/>
</svg>
