<svg fill="#806DFF" height="200px" width="200px" version="1.1" xmlns="http://www.w3.org/2000/svg" viewBox="0 0 512 512" xmlns:xlink="http://www.w3.org/1999/xlink" enable-background="new 0 0 512 512" stroke="#806DFF"><g id="SVGRepo_bgCarrier" stroke-width="0"></g><g id="SVGRepo_tracerCarrier" stroke-linecap="round" stroke-linejoin="round"></g><g id="SVGRepo_iconCarrier"> <g> <g> <path d="m140.1,99.5c63.9-63.6 167.9-63.7 231.8,0 11.1,11.1 24.9,3.9 28.9-0.1 8-8 7.9-20.9-0.1-28.9-79.8-79.4-209.6-79.4-289.4,0-8,8-8,20.9-0.1,28.9 8,8.1 20.9,8.1 28.9,0.1z"></path> <path d="m325.1,159.6c7.8-8.1 7.9-20.9-0.1-28.9-38.1-37.9-100-37.9-138,0-8,8-8,20.9-0.1,28.9 8,8 20.9,8 28.9,0.1 22.2-22.1 58.2-22.1 80.4,0 4,3.9 18.1,11.1 28.9-0.1z"></path> <path d="m371.9,412.5c-63.9,63.6-167.9,63.7-231.8,0-11.1-11.1-24.9-3.9-28.9,0.1-8,8-7.9,20.9 0.1,28.9 79.8,79.4 209.6,79.4 289.4,0 8-8 8-20.9 0.1-28.9-8-8.1-20.9-8.1-28.9-0.1z"></path> <path d="m325,381.3c8-8 8-20.9 0.1-28.9-8-8-20.9-8-28.9-0.1-22.2,22.1-58.2,22.1-80.4,0-4-4-18.1-11.2-28.9,0.1-7.8,8.1-7.9,20.9 0.1,28.9 38,37.9 100,37.9 138,0z"></path> <path d="m135,211.6v87.3h33.5c5.6,0 10.3-0.5 14.2-1.5 3.8-1 7.1-2.4 9.6-4.3 2.6-1.9 4.7-4.6 6.4-8.1 1.7-3.5 2.6-7.3 2.6-11.4 0-5.1-1.4-9.5-4.3-13.2-2.9-3.7-6.9-6.4-12.2-7.9 4.1-2 7.2-4.7 9.2-8 2-3.3 3.1-6.8 3.1-10.5 0-4-1.1-7.9-3.4-11.5-2.3-3.7-5.5-6.4-9.5-8.2-4-1.8-9.4-2.7-16.1-2.7h-33.1zm51.7,53.5c1.7,2.4 2.5,5.2 2.5,8.5 0,2.8-0.6,5.2-1.7,7.4-1.2,2.1-2.6,3.7-4.4,4.9-1.8,1.1-4,1.9-6.7,2.4-1.5,0.3-4.1,0.4-7.9,0.4h-21.8v-30h20.3c5.6,0 9.9,0.5 12.8,1.5 2.9,0.8 5.2,2.5 6.9,4.9zm-3.3-37.5c1.4,2.2 2.1,4.8 2.1,7.7 0,3.1-0.7,5.6-2.2,7.6-1.5,2-3.7,3.5-6.7,4.3-2.2,0.7-5.9,1-11.1,1h-19v-26.4h17.5c6.3,0 10.8,0.4 13.3,1.2 2.8,0.9 4.8,2.4 6.1,4.6z"></path> <path d="m217.4,211.6v50.4c0,9.3 1.1,16.6 3.4,21.9 2.2,5.3 6,9.4 11.2,12.2 5.2,2.8 11.9,4.2 20.2,4.2 8.5,0 15.3-1.6 20.5-4.9 5.2-3.2 8.8-7.4 10.8-12.6 2-5.2 3-12.1 3-20.9v-50.5h-11.6v50.6c0,11-1.8,18.4-5.4,22.2-3.6,3.9-9.7,5.8-18.3,5.8-5,0-9.2-1-12.7-2.9-3.5-1.9-5.9-4.7-7.3-8.3-1.4-3.6-2.1-9.2-2.1-16.8v-50.4h-11.7z"></path> <path d="m342,261.9l35-50.3h-13.5l-17,25.7c-3.8,5.7-6.9,10.9-9.6,15.4-2.8-4.9-5.7-9.8-8.9-14.8l-17.3-26.3h-14.1l33.8,50.3v37h11.6v-37z"></path> </g> </g> </g></svg>