<svg version="1.1" id="Uploaded to svgrepo.com" xmlns="http://www.w3.org/2000/svg" xmlns:xlink="http://www.w3.org/1999/xlink" viewBox="0 0 32 32" xml:space="preserve" fill="#c2c2be" stroke="#c2c2be" stroke-width="1.1199999999999999"><g id="SVGRepo_bgCarrier" stroke-width="0"></g><g id="SVGRepo_tracerCarrier" stroke-linecap="round" stroke-linejoin="round"></g><g id="SVGRepo_iconCarrier"> <style type="text/css"> .open_een{fill:#c2c2c3;} </style> <g> <g> <path class="open_een" d="M28.5,26h-25C2.673,26,2,25.327,2,24.5v-14C2,10.224,2.224,10,2.5,10H29V7.5C29,7.224,28.776,7,28.5,7 h-25C3.224,7,3,7.224,3,7.5C3,7.776,2.776,8,2.5,8S2,7.776,2,7.5C2,6.673,2.673,6,3.5,6h25C29.327,6,30,6.673,30,7.5v3 c0,0.276-0.224,0.5-0.5,0.5H3v13.5C3,24.776,3.224,25,3.5,25h25c0.276,0,0.5-0.224,0.5-0.5v-11c0-0.276,0.224-0.5,0.5-0.5 s0.5,0.224,0.5,0.5v11C30,25.327,29.327,26,28.5,26z"></path> <path class="open_een" d="M7.5,17h-1C5.673,17,5,16.327,5,15.5v-1C5,13.673,5.673,13,6.5,13h1C8.327,13,9,13.673,9,14.5v1 C9,16.327,8.327,17,7.5,17z M6.5,14C6.224,14,6,14.224,6,14.5v1C6,15.776,6.224,16,6.5,16h1C7.776,16,8,15.776,8,15.5v-1 C8,14.224,7.776,14,7.5,14H6.5z"></path> <path class="open_een" d="M8.5,23h-3C5.224,23,5,22.776,5,22.5S5.224,22,5.5,22h3C8.776,22,9,22.224,9,22.5S8.776,23,8.5,23z"></path> <path class="open_een" d="M14.5,23h-3c-0.276,0-0.5-0.224-0.5-0.5s0.224-0.5,0.5-0.5h3c0.276,0,0.5,0.224,0.5,0.5 S14.776,23,14.5,23z"></path> <path class="open_een" d="M20.5,23h-3c-0.276,0-0.5-0.224-0.5-0.5s0.224-0.5,0.5-0.5h3c0.276,0,0.5,0.224,0.5,0.5 S20.776,23,20.5,23z"></path> <path class="open_een" d="M26.5,23h-3c-0.276,0-0.5-0.224-0.5-0.5s0.224-0.5,0.5-0.5h3c0.276,0,0.5,0.224,0.5,0.5 S26.776,23,26.5,23z"></path> <path class="open_een" d="M20.5,20h-15C5.224,20,5,19.776,5,19.5S5.224,19,5.5,19h15c0.276,0,0.5,0.224,0.5,0.5S20.776,20,20.5,20 z"></path> </g> <g> <path class="open_een" d="M28.5,26h-25C2.673,26,2,25.327,2,24.5v-14C2,10.224,2.224,10,2.5,10H29V7.5C29,7.224,28.776,7,28.5,7 h-25C3.224,7,3,7.224,3,7.5C3,7.776,2.776,8,2.5,8S2,7.776,2,7.5C2,6.673,2.673,6,3.5,6h25C29.327,6,30,6.673,30,7.5v3 c0,0.276-0.224,0.5-0.5,0.5H3v13.5C3,24.776,3.224,25,3.5,25h25c0.276,0,0.5-0.224,0.5-0.5v-11c0-0.276,0.224-0.5,0.5-0.5 s0.5,0.224,0.5,0.5v11C30,25.327,29.327,26,28.5,26z"></path> <path class="open_een" d="M7.5,17h-1C5.673,17,5,16.327,5,15.5v-1C5,13.673,5.673,13,6.5,13h1C8.327,13,9,13.673,9,14.5v1 C9,16.327,8.327,17,7.5,17z M6.5,14C6.224,14,6,14.224,6,14.5v1C6,15.776,6.224,16,6.5,16h1C7.776,16,8,15.776,8,15.5v-1 C8,14.224,7.776,14,7.5,14H6.5z"></path> <path class="open_een" d="M8.5,23h-3C5.224,23,5,22.776,5,22.5S5.224,22,5.5,22h3C8.776,22,9,22.224,9,22.5S8.776,23,8.5,23z"></path> <path class="open_een" d="M14.5,23h-3c-0.276,0-0.5-0.224-0.5-0.5s0.224-0.5,0.5-0.5h3c0.276,0,0.5,0.224,0.5,0.5 S14.776,23,14.5,23z"></path> <path class="open_een" d="M20.5,23h-3c-0.276,0-0.5-0.224-0.5-0.5s0.224-0.5,0.5-0.5h3c0.276,0,0.5,0.224,0.5,0.5 S20.776,23,20.5,23z"></path> <path class="open_een" d="M26.5,23h-3c-0.276,0-0.5-0.224-0.5-0.5s0.224-0.5,0.5-0.5h3c0.276,0,0.5,0.224,0.5,0.5 S26.776,23,26.5,23z"></path> <path class="open_een" d="M20.5,20h-15C5.224,20,5,19.776,5,19.5S5.224,19,5.5,19h15c0.276,0,0.5,0.224,0.5,0.5S20.776,20,20.5,20 z"></path> </g> </g> </g></svg>