<svg xmlns="http://www.w3.org/2000/svg" xmlns:xlink="http://www.w3.org/1999/xlink" x="0px" y="0px" width="48px" height="48px" viewBox="0 0 48 48"><g transform="translate(0, 0)"><path fill="#E6E6E6" d="M38,16H6c-0.552,0-1,0.448-1,1v25c0,1.105,0.895,2,2,2h30c1.105,0,2-0.895,2-2V17C39,16.448,38.552,16,38,16
	z"></path>
<path fill="#E86C60" d="M34.895,1.553C34.725,1.214,34.379,1,34,1H10C9.621,1,9.275,1.214,9.105,1.553C9.105,1.553,1,13.845,1,14
	c0,4.835,3.014,7,6,7c2.11,0,3.934-1.037,5-2.64c1.066,1.603,2.89,2.64,5,2.64s3.934-1.037,5-2.64c1.066,1.603,2.89,2.64,5,2.64
	s3.934-1.037,5-2.64c1.066,1.603,2.89,2.64,5,2.64c2.986,0,6-2.165,6-7C43,13.845,34.895,1.553,34.895,1.553z"></path>
<path fill="#C94F49" d="M7,21c2.11,0,3.934-1.037,5-2.64c1.066,1.603,2.89,2.64,5,2.64s3.934-1.037,5-2.64
	c1.066,1.603,2.89,2.64,5,2.64s3.934-1.037,5-2.64c1.066,1.603,2.89,2.64,5,2.64c2.986,0,6-2.165,6-7H1C1,18.835,4.014,21,7,21z"></path>
<path fill="#A67C52" d="M25,34h-6c-0.552,0-1,0.448-1,1v9h8v-9C26,34.448,25.552,34,25,34z"></path>
<path fill="#43A6DD" d="M25,31h-6c-0.552,0-1-0.448-1-1v-4c0-0.552,0.448-1,1-1h6c0.552,0,1,0.448,1,1v4C26,30.552,25.552,31,25,31z
	"></path>
<path fill="#E86C60" d="M38,24c-4.971,0-9,4.029-9,9c0,5.369,6.815,12.298,8.584,14.006c0.233,0.225,0.598,0.225,0.831,0
	C40.185,45.298,47,38.369,47,33C47,28.029,42.971,24,38,24z"></path>
<circle fill="#FFFFFF" cx="38" cy="33" r="3"></circle></g></svg>